HIERARCHY
ROOT hip
{
	OFFSET 0.000000 0.000000 0.000000 
	CHANNELS 6 Xposition Yposition Zposition Xrotation Zrotation Yrotation
	JOINT abdomen
	{
		OFFSET 0.000000 3.402643 0.000000 
		CHANNELS 3 Xrotation Zrotation Yrotation
		JOINT chest
		{
			OFFSET 0.000000 8.438565 -0.680529 
			CHANNELS 3 Xrotation Zrotation Yrotation
			JOINT neck
			{
				OFFSET 0.000000 10.207942 -0.272212 
				CHANNELS 3 Xrotation Zrotation Yrotation
				JOINT head
				{
					OFFSET 0.000000 3.130431 0.000000 
					CHANNELS 3 Xrotation Zrotation Yrotation
					End Site
					{
						OFFSET 0.000000 3.130435 0.000000 
					}
				}
			}
			JOINT lCollar
			{
				OFFSET 3.470700 6.669187 -0.816635 
				CHANNELS 3 Yrotation Zrotation Xrotation
				JOINT lShldr
				{
					OFFSET 3.198488 0.000000 0.000000 
					CHANNELS 3 Zrotation Yrotation Xrotation
					JOINT lForeArm
					{
						OFFSET 10.139888 0.000000 0.000000 
						CHANNELS 3 Yrotation Zrotation Xrotation
						JOINT lHand
						{
							OFFSET 8.370511 0.000000 0.000000 
							CHANNELS 3 Zrotation Yrotation Xrotation
							End Site
							{
								OFFSET 4.083176 0.000000 0.000000 
							}
						}
					}
				}
			}
			JOINT rCollar
			{
				OFFSET -3.470700 6.669187 -0.816635 
				CHANNELS 3 Yrotation Zrotation Xrotation
				JOINT rShldr
				{
					OFFSET -3.198488 0.000000 0.000000 
					CHANNELS 3 Zrotation Yrotation Xrotation
					JOINT rForeArm
					{
						OFFSET -10.139888 0.000000 0.000000 
						CHANNELS 3 Yrotation Zrotation Xrotation
						JOINT rHand
						{
							OFFSET -8.370511 0.000000 0.000000 
							CHANNELS 3 Zrotation Yrotation Xrotation
							End Site
							{
								OFFSET -4.083176 0.000000 0.000000 
							}
						}
					}
				}
			}
		}
	}
	JOINT lThigh
	{
		OFFSET 5.308129 -1.633274 1.361059 
		CHANNELS 3 Xrotation Zrotation Yrotation
		JOINT lShin
		{
			OFFSET -2.041588 -20.007561 0.000000 
			CHANNELS 3 Xrotation Zrotation Yrotation
			JOINT lFoot
			{
				OFFSET 0.000000 -19.190928 -1.224953 
				CHANNELS 3 Xrotation Yrotation Zrotation
				End Site
				{
					OFFSET 0.000000 -2.449906 4.627600 
				}
			}
		}
	}
	JOINT rThigh
	{
		OFFSET -5.308129 -1.633274 1.361059 
		CHANNELS 3 Xrotation Zrotation Yrotation
		JOINT rShin
		{
			OFFSET 2.041588 -20.007561 0.000000 
			CHANNELS 3 Xrotation Zrotation Yrotation
			JOINT rFoot
			{
				OFFSET 0.000000 -19.190928 -1.224953 
				CHANNELS 3 Xrotation Yrotation Zrotation
				End Site
				{
					OFFSET 0.000000 -2.449906 4.627600 
				}
			}
		}
	}
}
MOTION
Frames: 8
Frame Time: 0.016667
27.018803 32.694244 -2.094514 0.107565 2.958980 148.854004 -21.311701 3.620240 -2.333010 10.008200 7.009640 -1.291860 -3.374530 10.663900 -22.412500 6.188480 10.183700 -10.494700 2.000000 -2.000000 0.000000 -77.281998 16.089100 -137.166000 111.210999 -0.161849 0.146362 0.223314 -0.159399 126.555000 -2.000000 2.000000 0.000000 57.828701 26.066000 144.382004 -93.574600 0.206934 0.116947 -0.076316 -0.071191 -106.619003 -31.111963 21.299040 16.432930 83.176636 -0.681278 4.603383 -39.650509 15.243406 13.696109 -47.479385 -26.452721 -13.798315 63.666012 -0.879115 -4.124572 -21.583050 5.305287 -0.285712 
27.190006 32.535175 -2.113656 -0.273786 2.890590 148.912003 -21.318300 3.528770 -2.465210 10.050500 6.876100 -1.349060 -3.561420 10.849500 -22.394501 6.119620 10.252600 -10.475000 2.000000 -2.000000 0.000000 -77.223000 16.128599 -136.901993 111.036003 -0.162269 0.146524 0.219914 -0.159751 127.775002 -2.000000 2.000000 0.000000 58.218498 26.624399 143.455002 -93.291397 0.207560 0.116985 -0.075077 -0.069032 -107.508003 -31.590977 22.116159 16.588242 83.843567 -0.719775 4.613671 -40.101753 14.771853 13.439712 -47.944019 -26.789202 -14.538975 64.421890 -0.810746 -4.157398 -22.531794 5.236694 -0.223986 
27.341999 32.414410 -2.134213 -0.410689 2.919850 148.865997 -21.257700 3.483540 -2.558290 10.098800 6.915590 -1.408840 -3.454810 10.988200 -22.364000 6.129630 10.262300 -10.472900 2.000000 -2.000000 0.000000 -76.948799 16.207600 -136.423996 110.683998 -0.163108 0.146844 0.217571 -0.159951 128.615005 -2.000000 2.000000 0.000000 58.266998 26.937700 143.046005 -92.607803 0.209073 0.117063 -0.074676 -0.068317 -107.801003 -31.634758 22.843727 16.885180 84.245667 -0.750705 4.612067 -40.406837 14.364318 13.237617 -48.090569 -27.098221 -15.240227 65.020805 -0.750436 -4.180978 -23.517242 5.164064 -0.140757 
27.481974 32.322968 -2.156479 -0.449761 2.812410 148.893997 -21.219601 3.502870 -2.478970 10.116800 6.992860 -1.372890 -3.287690 11.136200 -22.572500 6.209460 10.310400 -10.574300 2.000000 -2.000000 0.000000 -76.508003 16.091700 -135.671997 110.333000 -0.163950 0.147159 0.219832 -0.159758 127.805000 -2.000000 2.000000 0.000000 57.641300 26.655001 142.811005 -91.767998 0.210932 0.117134 -0.073990 -0.067071 -108.308998 -31.627745 23.282608 17.217201 84.529953 -0.772481 4.608855 -40.609913 14.027949 13.049466 -48.286716 -27.519156 -15.676324 65.628914 -0.714793 -4.208985 -24.400166 4.978142 -0.126009 
27.594313 32.248936 -2.154211 -0.596377 2.724460 149.044006 -21.230101 3.565060 -2.619020 10.040100 7.327380 -1.472350 -3.118450 11.055600 -22.640400 6.268380 10.241500 -10.625100 2.000000 -2.000000 0.000000 -76.351898 16.130600 -135.759003 110.167000 -0.164348 0.147306 0.223694 -0.159355 126.417999 -2.000000 2.000000 0.000000 57.124500 26.556299 143.328003 -91.045403 0.212533 0.117173 -0.073443 -0.066061 -108.719002 -31.890781 23.582279 17.254742 84.737396 -0.807955 4.627207 -40.569771 13.945671 12.957054 -48.586349 -27.773521 -15.939754 66.255745 -0.677939 -4.215181 -24.921083 4.666819 -0.190893 
27.711033 32.186810 -2.158210 -0.606125 2.665870 149.337006 -21.182600 3.605140 -2.568430 9.997480 7.460860 -1.454590 -3.528030 11.142600 -22.855200 6.160000 10.330300 -10.699600 2.000000 -2.000000 0.000000 -75.990601 16.198999 -135.720993 110.322998 -0.163974 0.147168 0.224970 -0.159200 125.959000 -2.000000 2.000000 0.000000 56.313400 25.989700 143.414993 -90.693802 0.213312 0.117185 -0.073006 -0.065240 -109.051003 -32.114052 23.651993 17.145378 84.991951 -0.845081 4.603417 -40.511105 14.022892 12.999711 -48.618446 -28.078678 -16.156460 66.658577 -0.636244 -4.237786 -25.355106 4.304411 -0.307342 
27.781130 32.139629 -2.141920 -0.879894 2.714520 149.656006 -21.194300 3.681140 -2.588150 9.947070 7.507670 -1.469840 -3.978620 11.189800 -23.059999 6.051490 10.409300 -10.764900 2.000000 -2.000000 0.000000 -75.844597 16.511101 -135.945999 110.577003 -0.163365 0.146941 0.223260 -0.159405 126.573997 -2.000000 2.000000 0.000000 55.746601 25.608999 143.375000 -90.469200 0.213809 0.117190 -0.073833 -0.066783 -108.426003 -32.701313 23.844542 16.775347 85.247795 -0.871669 4.615642 -40.386200 14.058598 12.979176 -48.702080 -27.956846 -16.185076 66.845131 -0.618119 -4.246936 -25.502562 3.716137 -0.554168 
27.827414 32.114128 -2.139359 -1.124320 2.724090 149.867996 -21.166300 3.715030 -2.525580 10.008000 7.432290 -1.418710 -4.376350 11.119400 -23.262899 5.922570 10.429900 -10.845800 2.000000 -2.000000 0.000000 -75.640099 16.833000 -136.171005 110.870003 -0.162665 0.146676 0.221520 -0.159594 127.198997 -2.000000 2.000000 0.000000 55.316101 25.189501 143.130005 -90.420403 0.213918 0.117190 -0.074689 -0.068341 -107.791000 -33.180431 23.854076 16.309483 85.454079 -0.894957 4.615892 -40.261086 14.230496 13.076858 -48.884281 -27.706432 -15.884244 66.924019 -0.601072 -4.251410 -25.247217 3.199955 -0.766609 
